<?xml version="1.0" standalone="no"?>
<!DOCTYPE svg PUBLIC "-//W3C//DTD SVG 20010904//EN"
 "http://www.w3.org/TR/2001/REC-SVG-20010904/DTD/svg10.dtd">
<svg version="1.0" xmlns="http://www.w3.org/2000/svg"
 width="320.000000pt" height="320.000000pt" viewBox="0 0 320.000000 320.000000"
 preserveAspectRatio="xMidYMid meet">
<metadata>
Created by potrace 1.11, written by Peter Selinger 2001-2013
</metadata>
<g transform="translate(0.000000,320.000000) scale(0.100000,-0.100000)"
fill="#000000" stroke="none">
<path d="M1590 2963 l0 -101 -41 -4 c-22 -2 -42 -2 -45 1 -2 2 -4 19 -4 37 0
18 -3 35 -7 37 -5 3 -6 -15 -4 -39 l3 -44 -35 0 c-20 0 -42 -3 -51 -6 -11 -4
-16 -1 -16 10 0 9 -4 16 -10 16 -5 0 -7 -6 -4 -14 4 -9 -9 -17 -40 -25 -25 -6
-47 -11 -50 -11 -3 0 -8 16 -12 35 -3 19 -10 38 -15 41 -11 7 -11 -3 0 -44 11
-35 6 -39 -60 -55 -23 -6 -27 -3 -39 33 -7 22 -17 40 -21 40 -5 0 -2 -19 7
-42 8 -22 13 -42 12 -44 -11 -9 -82 -33 -88 -29 -4 2 -13 18 -20 35 -7 16 -16
30 -21 30 -5 0 -3 -13 6 -30 22 -43 19 -54 -21 -73 -37 -18 -64 -11 -64 18 0
7 -7 18 -15 25 -20 17 -21 -9 0 -36 22 -29 18 -40 -21 -63 -39 -23 -44 -22
-75 32 -5 10 -15 15 -20 11 -6 -3 1 -20 17 -41 14 -19 22 -38 18 -42 -5 -4
-22 -17 -38 -29 l-29 -22 -28 32 c-15 18 -31 29 -35 25 -4 -4 5 -20 20 -36
l27 -28 -27 -32 -27 -32 -33 32 c-18 17 -37 28 -43 25 -17 -11 -13 -25 14 -52
19 -19 23 -29 16 -43 -22 -40 -35 -42 -73 -11 -32 26 -37 28 -43 12 -4 -12 3
-25 24 -44 l29 -26 -21 -30 -22 -29 -34 23 c-27 19 -38 21 -49 12 -12 -10 -10
-16 14 -35 16 -13 32 -23 37 -23 12 0 8 -17 -12 -41 l-18 -22 -36 22 c-35 22
-36 22 -46 2 -17 -30 -14 -36 24 -54 33 -15 35 -19 24 -40 -6 -12 -13 -23 -14
-25 -1 -1 -19 5 -40 14 -31 13 -39 13 -46 2 -16 -24 -9 -38 26 -55 28 -13 34
-21 29 -37 -9 -30 -11 -31 -49 -17 -39 14 -50 10 -58 -18 -3 -15 4 -22 34 -34
40 -16 45 -23 30 -45 -6 -11 -17 -11 -47 -3 -21 6 -39 9 -40 8 -1 -1 -5 -18
-9 -38 -7 -37 -7 -37 34 -44 23 -4 41 -10 41 -13 -1 -19 -19 -30 -50 -28 -19
0 -37 -3 -39 -9 -2 -5 -7 -20 -12 -31 -6 -18 -3 -23 14 -28 12 -3 32 -6 45 -6
15 0 22 -6 22 -20 0 -17 -7 -20 -44 -20 -43 0 -44 -1 -48 -35 -3 -31 -1 -35
19 -36 13 -1 28 -3 33 -4 6 -1 15 -3 20 -4 6 0 10 -10 10 -21 0 -18 -8 -20
-103 -23 l-102 -3 103 -2 102 -2 1 -42 c0 -24 2 -50 3 -58 2 -8 6 -44 10 -78
14 -128 76 -304 153 -437 169 -294 441 -502 767 -589 107 -29 135 -34 241 -42
44 -3 81 -7 83 -8 1 -2 2 -46 3 -99 0 -54 4 -97 7 -97 4 0 6 45 5 101 l-3 100
48 -2 c26 -1 52 0 58 3 5 3 29 8 54 9 41 3 45 2 48 -21 2 -14 7 -29 12 -34 5
-5 5 7 0 27 -7 34 -7 35 27 42 19 3 41 9 48 11 9 4 18 -8 26 -35 7 -23 16 -41
20 -41 4 0 3 15 -2 32 -14 49 -12 55 19 61 15 3 35 9 44 12 17 7 20 4 44 -64
2 -8 7 -11 10 -8 4 3 -1 24 -9 45 l-16 40 46 17 c38 15 47 15 54 4 5 -8 9 -19
9 -25 0 -6 7 -17 15 -24 19 -16 19 -3 0 30 -8 14 -14 30 -14 35 0 8 65 45 80
45 2 0 13 -16 23 -35 11 -19 23 -35 28 -35 12 0 10 10 -13 47 -12 19 -20 35
-18 37 27 19 68 46 73 46 3 0 16 -16 30 -36 13 -19 26 -31 30 -26 3 5 -6 24
-19 42 l-24 33 37 28 37 28 27 -32 c14 -17 30 -29 33 -25 4 4 -5 22 -20 40
l-27 32 32 27 32 27 31 -29 c24 -23 33 -27 44 -17 12 9 9 16 -17 43 l-30 31
23 27 22 27 38 -27 c32 -23 40 -25 47 -13 7 11 1 21 -20 38 -35 27 -36 36 -11
67 l18 24 36 -24 c29 -20 37 -22 46 -11 9 11 4 20 -25 43 l-36 29 20 24 19 24
36 -21 36 -22 15 24 c15 23 15 25 -24 46 -35 20 -38 25 -28 43 6 12 12 22 13
24 2 2 20 -4 40 -12 41 -18 50 -15 58 14 4 15 -3 23 -34 37 -43 19 -45 21 -26
47 12 17 18 17 51 6 42 -14 45 -13 48 19 2 19 -4 26 -31 36 -38 12 -45 23 -32
43 6 11 17 11 47 3 21 -6 39 -9 41 -7 2 2 6 19 10 39 5 34 5 35 -37 42 -31 5
-40 11 -36 22 3 8 6 17 6 19 0 3 20 2 45 -2 41 -6 45 -4 45 14 0 11 3 27 6 36
4 11 -4 17 -33 22 -21 5 -41 7 -45 6 -5 -1 -8 7 -8 19 0 19 5 21 45 17 25 -2
45 -1 46 2 12 71 11 72 -58 73 -17 0 -23 6 -23 23 0 23 3 23 103 27 l102 3
-102 2 -103 2 -1 43 c-5 197 -76 430 -185 604 -229 367 -620 590 -1056 603
-15 0 -17 12 -16 95 0 53 -2 99 -6 102 -3 4 -6 -39 -6 -94z m160 -227 c383
-54 707 -287 879 -633 247 -497 87 -1114 -371 -1430 -594 -411 -1406 -193
-1710 459 -120 254 -136 566 -44 836 135 396 478 687 894 761 97 17 256 20
352 7z"/>
<path d="M1505 2674 c-265 -33 -455 -116 -643 -281 -35 -30 -61 -58 -58 -61 3
-3 19 8 34 24 182 186 445 299 722 309 96 3 264 -14 290 -30 5 -3 10 -1 10 4
0 6 -3 11 -7 11 -5 0 -47 6 -96 14 -86 13 -194 17 -252 10z"/>
<path d="M1870 2636 c0 -2 30 -14 68 -26 143 -47 298 -142 412 -253 199 -194
314 -469 315 -750 0 -42 3 -77 7 -77 8 0 3 166 -7 235 -13 90 -55 215 -106
318 -27 56 -53 104 -57 107 -4 3 -20 25 -36 49 -62 96 -224 237 -356 308 -72
39 -240 102 -240 89z"/>
<path d="M767 2297 c-109 -132 -214 -351 -231 -482 l-5 -40 10 40 c22 84 53
173 82 235 32 71 114 199 155 243 14 15 22 27 16 27 -5 0 -17 -10 -27 -23z"/>
<path d="M783 2072 l-23 -3 0 -468 0 -468 65 0 65 0 2 316 3 316 44 -260 c24
-143 48 -285 53 -316 l10 -56 61 1 c34 1 67 4 73 8 7 4 15 34 19 65 5 47 33
230 49 328 2 11 9 63 17 115 7 52 15 98 18 102 3 4 6 -133 6 -305 l0 -312 70
0 70 0 0 468 1 467 -26 1 c-163 5 -173 4 -181 -16 -4 -11 -12 -54 -18 -95 -6
-41 -24 -163 -41 -270 -17 -107 -32 -208 -34 -223 -5 -44 -13 -42 -20 6 -4 24
-9 55 -11 68 -2 13 -13 83 -25 154 -11 72 -23 141 -25 155 -3 14 -12 68 -20
120 -9 51 -18 96 -20 98 -5 6 -150 8 -182 4z"/>
<path d="M1460 2072 c-6 -2 -10 -33 -10 -68 0 -63 0 -64 28 -65 15 0 49 -1 77
-2 l50 -2 1 -400 0 -400 72 -1 c42 0 73 4 75 10 1 6 2 188 2 403 l-1 393 56
-1 c108 -2 100 -7 100 66 0 64 0 65 -27 66 -89 3 -415 3 -423 1z"/>
<path d="M1994 2070 c-19 -5 -20 -18 -19 -470 l0 -465 140 0 c175 -1 207 7
262 61 49 49 58 90 56 232 -2 99 -28 164 -75 188 l-30 16 31 26 c45 38 60 90
57 197 -3 125 -34 176 -121 205 -36 12 -267 20 -301 10z m253 -156 c23 -23 25
-31 21 -104 -4 -97 -15 -111 -91 -118 l-54 -4 2 123 c1 68 3 125 4 125 0 1 22
2 47 2 36 1 51 -4 71 -24z m1 -373 c29 -15 39 -60 37 -154 -3 -103 -15 -117
-100 -117 l-62 0 2 143 c1 78 3 143 4 143 5 6 102 -6 119 -15z"/>
<path d="M519 1723 c0 -27 -2 -56 -4 -66 -2 -9 0 -15 4 -13 4 3 8 29 10 57 1
29 4 56 7 61 3 4 0 8 -5 8 -6 0 -11 -21 -12 -47z"/>
<path d="M510 1610 c0 -11 2 -20 4 -20 2 0 6 9 9 20 3 11 1 20 -4 20 -5 0 -9
-9 -9 -20z"/>
<path d="M512 1555 c3 -33 16 -33 14 0 0 14 -4 25 -8 25 -4 0 -7 -11 -6 -25z"/>
<path d="M526 1462 c11 -134 78 -313 169 -452 45 -69 224 -260 244 -260 4 0
19 -9 32 -21 61 -53 232 -131 358 -164 80 -20 181 -34 181 -23 0 4 -17 8 -37
8 -49 0 -180 32 -264 64 -92 35 -172 79 -256 142 -228 171 -367 399 -419 691
l-14 78 6 -63z"/>
<path d="M2656 1462 c-4 -35 -11 -75 -16 -88 -6 -14 -6 -24 -1 -24 11 0 34
131 29 157 -2 10 -7 -11 -12 -45z"/>
<path d="M2616 1282 c-42 -136 -146 -308 -252 -418 -50 -51 -152 -130 -229
-177 -111 -68 -312 -134 -412 -136 -18 -1 -33 -5 -33 -11 0 -5 6 -8 13 -5 6 2
31 6 54 9 125 16 307 83 410 151 21 14 47 31 57 38 120 77 257 235 332 382 41
79 90 212 82 221 -3 2 -12 -22 -22 -54z"/>
<path d="M1537 538 c-7 -4 21 -8 61 -8 39 0 72 3 72 8 0 9 -118 9 -133 0z"/>
<path d="M1372 2905 c0 -16 2 -22 5 -12 2 9 2 23 0 30 -3 6 -5 -1 -5 -18z"/>
<path d="M1693 315 c0 -8 4 -12 9 -9 4 3 8 9 8 15 0 5 -4 9 -8 9 -5 0 -9 -7
-9 -15z"/>
<path d="M1695 280 c3 -5 8 -10 11 -10 2 0 4 5 4 10 0 6 -5 10 -11 10 -5 0 -7
-4 -4 -10z"/>
</g>
</svg>
